<?xml version="1.0" encoding="UTF-8"?>
<!DOCTYPE svg PUBLIC "-//W3C//DTD SVG 1.1//EN" "http://www.w3.org/Graphics/SVG/1.1/DTD/svg11.dtd">
<!-- Creator: CorelDRAW -->
<svg xmlns="http://www.w3.org/2000/svg" xml:space="preserve" width="2048px" height="2048px" style="shape-rendering:geometricPrecision; text-rendering:geometricPrecision; image-rendering:optimizeQuality; fill-rule:evenodd; clip-rule:evenodd"
viewBox="0 0 2048 2048"
 xmlns:xlink="http://www.w3.org/1999/xlink">
 <defs>
  <style type="text/css">
   <![CDATA[
    .fil2 {fill:none}
    .fil1 {fill:#212121}
    .fil0 {fill:#212121;fill-rule:nonzero}
   ]]>
  </style>
 </defs>
 <g id="Layer_x0020_1">
  <metadata id="CorelCorpID_0Corel-Layer"/>
  <path class="fil0" d="M1183.8 451.611c4.81418,-12.3225 -1.27087,-26.2169 -13.5933,-31.0311 -12.3225,-4.81418 -26.2169,1.27087 -31.0311,13.5933 -16.9382,43.3796 -42.5504,82.1741 -74.7449,114.298 -32.2689,32.1981 -71.126,57.75 -114.473,74.5642 -12.3225,4.76339 -18.45,18.6154 -13.6866,30.9378 4.76339,12.3225 18.6154,18.45 30.9378,13.6866 49.6607,-19.2626 94.1162,-48.476 130.973,-85.2509 36.9307,-36.8504 66.2705,-81.2481 85.6182,-130.798z"/>
  <path class="fil0" d="M1184.08 435.018c-4.34882,-12.4772 -17.9917,-19.0666 -30.4689,-14.7177 -12.4772,4.34882 -19.0666,17.9917 -14.7177,30.4689 7.39489,21.2351 12.5575,43.0063 15.5102,64.976 2.97047,22.0984 3.68386,44.4886 2.16732,66.8162 -0.879922,13.2024 9.11103,24.6201 22.3134,25.5 13.2024,0.879922 24.6201,-9.11103 25.5,-22.3134 1.71851,-25.3087 0.882284,-50.902 -2.54292,-76.3784 -3.37441,-25.0996 -9.28583,-50.0115 -17.7614,-74.3516z"/>
  <path class="fil0" d="M1555.27 667.851c12.4264,4.55552 26.1945,-1.82362 30.75,-14.25 4.55552,-12.4264 -1.82362,-26.1945 -14.25,-30.75 -55.6796,-20.452 -105.998,-49.5 -148.213,-84.8457 -41.9516,-35.1236 -75.8138,-76.3241 -98.8666,-121.318 -6.00591,-11.7532 -20.4036,-16.4114 -32.1567,-10.4055 -11.7532,6.00591 -16.4114,20.4036 -10.4055,32.1567 26.1095,50.9611 64.0123,97.2473 110.678,136.318 46.4008,38.8512 101.56,70.7233 162.464,93.0946z"/>
  <path class="fil0" d="M1166.14 564.936c-10.6134,7.92048 -12.7961,22.9488 -4.87559,33.5622 7.92048,10.6134 22.9488,12.7961 33.5622,4.87559 25.3654,-18.9366 50.85,-44.68 73.2804,-72.9567 22.6725,-28.5827 42.3803,-59.9705 55.8142,-89.7095 5.43544,-12.0626 0.0625985,-26.2512 -12,-31.6866 -12.0626,-5.43544 -26.2512,-0.0625985 -31.6866,12 -11.8181,26.1614 -29.3457,54.0142 -49.6276,79.5827 -19.9169,25.1079 -42.3485,47.8205 -64.467,64.3323z"/>
  <path class="fil0" d="M1248.46 245.999c95.4686,0 181.902,38.6988 244.467,101.263 62.5642,62.5654 101.263,148.999 101.263,244.467 0,95.4686 -38.6988,181.902 -101.263,244.466 -62.5654,62.5642 -148.999,101.263 -244.467,101.263 -95.4674,0 -181.902,-38.6988 -244.466,-101.263 -62.5642,-62.5642 -101.263,-148.999 -101.263,-244.466 0,-95.4686 38.6988,-181.902 101.263,-244.467 62.5642,-62.5642 148.999,-101.263 244.466,-101.263zm210.529 135.201c-53.8772,-53.876 -128.312,-87.2009 -210.529,-87.2009 -82.2166,0 -156.652,33.3248 -210.528,87.2009 -53.876,53.8772 -87.2009,128.312 -87.2009,210.529 0,82.2166 33.3248,156.652 87.2009,210.528 53.876,53.876 128.312,87.2009 210.528,87.2009 82.2178,0 156.652,-33.3248 210.529,-87.2009 53.876,-53.876 87.2009,-128.31 87.2009,-210.528 0,-82.2178 -33.3248,-156.652 -87.2009,-210.529z"/>
  <path class="fil0" d="M824.032 1189.5c30.1488,-69.8481 78.8056,-121.805 149.697,-156.339 69.3627,-33.7878 159.722,-50.4437 274.733,-50.4437 108.712,0 197.769,20.2488 266.753,53.4225 79.2367,38.1012 132.161,93.3733 158.365,155.086l0.0874016 -0.0366142c0.679134,1.60039 1.16811,3.23268 1.48347,4.87323l88.6808 335.876 0.0531496 -0.0141732c3.38268,12.815 -4.26378,25.9488 -17.0788,29.3315 -2.21575,0.584646 -4.43977,0.838583 -6.62363,0.794883l-485.239 0c1.10787,-1.87441 2.18504,-3.77126 3.2315,-5.69056 7.19764,-13.1976 12.9803,-27.4264 17.5843,-42.3095l433.818 0 -80.765 -305.897c-22.0536,-50.6741 -66.8564,-96.495 -134.222,-128.889 -62.6882,-30.1453 -144.741,-48.5469 -246.129,-48.5469 -107.626,0 -191.074,15.0461 -253.733,45.5681 -60.0343,29.2453 -101.215,73.1481 -126.695,132.108l-38.7933 146.939c-15.7075,-6 -30.8988,-11.589 -45.1028,-16.7752l38.041 -144.086 23.1567 6.09331 -23.2051 -6.12638c0.46063,-1.74685 1.10315,-3.39803 1.90158,-4.93701zm166.697 372.551l-149.158 0 0 -48 99.2398 0c24.763,16.4764 31.3524,27.8705 49.9181,48z"/>
  <path class="fil0" d="M1083.85 1027.88c-7.19646,-11.0799 -22.0134,-14.2276 -33.0933,-7.03111 -11.0799,7.19646 -14.2276,22.0134 -7.03111,33.0933 21.8374,33.4736 52.5272,60.4146 88.3973,78.9272 35.6599,18.4028 76.4268,28.5473 118.654,28.5473 40.4859,0 79.715,-9.34135 114.416,-26.413 34.8437,-17.1414 65.0823,-42.1536 87.4264,-73.4174 7.663,-10.7693 5.14489,-25.7126 -5.62441,-33.3756 -10.7693,-7.663 -25.7126,-5.14489 -33.3756,5.62441 -17.6244,24.6591 -41.7071,44.5028 -69.613,58.2308 -28.0512,13.8 -60.0095,21.3508 -93.2292,21.3508 -34.6252,0 -67.8485,-8.21221 -96.7158,-23.1095 -28.6559,-14.7886 -53.0386,-36.104 -70.2107,-62.4272z"/>
  <path class="fil1" d="M303.316 1485.43c-11.0504,0 -20.002,8.95158 -20.002,20.002l0 252.571c0,11.0504 8.95158,20.002 20.002,20.002l474.255 0c11.0504,0 20.002,-8.95158 20.002,-20.002l0 -252.571c0,-11.0504 -8.95158,-20.002 -20.002,-20.002l-474.255 0zm454.253 40.004l0 212.567 -434.252 0 0 -212.567 434.252 0z"/>
  <path class="fil0" d="M480.671 1413.09l119.544 0c10.4646,0 19.9701,4.26969 26.85,11.1496 6.87993,6.87993 11.1496,16.3854 11.1496,26.85l0 50.9197c0,8.83583 -7.16457,16.0004 -16.0004,16.0004l-163.543 0c-8.83583,0 -16.0004,-7.16457 -16.0004,-16.0004l0 -50.9197c0,-10.4646 4.26969,-19.9701 11.1496,-26.85 6.87993,-6.87993 16.3831,-11.1496 26.85,-11.1496zm119.544 32.0008l-119.544 0c-1.63347,0 -3.1311,0.680315 -4.22481,1.77402 -1.0937,1.0937 -1.77402,2.59134 -1.77402,4.22481l0 34.9193 131.542 0 0 -34.9193c0,-1.63347 -0.680315,-3.1311 -1.77402,-4.22481 -1.0937,-1.0937 -2.59134,-1.77402 -4.22481,-1.77402z"/>
  <polygon class="fil0" points="476.444,1606 604.443,1606 604.443,1654 476.444,1654 "/>
  <polygon class="fil0" points="516.443,1694 516.443,1566 564.443,1566 564.443,1694 "/>
  <path class="fil0" d="M546.903 986.057c5.63386,1.99843 11.9457,4.42441 16.9299,6.34016 6.71575,2.57953 9.80434,3.76772 12.5055,3.90591 2.78268,0.142913 7.663,-0.458268 16.6866,-1.57087 8.52875,-1.05118 20.7154,-2.55591 42.554,-4.56615 20.8358,-1.91693 34.8142,8.27127 41.8819,22.7221l0.00944883 -0.00472441c0.270473,0.553937 0.505512,1.11732 0.707481,1.68543 2.54055,5.78268 3.89174,12.1417 4.05945,18.5315 0.180709,6.92127 -0.990946,13.9276 -3.51142,20.3067 -1.7941,4.53898 -4.22008,8.80749 -7.27442,12.5858 2.92796,3.65551 5.24174,7.75985 6.93898,12.1228 2.23819,5.75552 3.32244,11.9658 3.25394,18.1394 -0.068504,6.28229 -1.29095,12.5197 -3.65197,18.2126 -1.74567,4.20709 -4.07008,8.15434 -6.96497,11.6693 2.81339,3.57756 5.04685,7.5756 6.69804,11.8169 2.23937,5.75434 3.32244,11.9658 3.25512,18.1394 -0.068504,6.27993 -1.28976,12.5197 -3.65197,18.2114 -6.41339,15.4547 -20.6173,27.4299 -42.4288,27.1902 -20.4295,-0.225591 -39.2138,0.693308 -55.9146,1.50945 -36.9036,1.80473 -64.4032,3.14882 -86.7367,-8.93623 -38.6835,-20.9303 -51.6284,-52.8272 -49.9477,-85.8237 0.839764,-16.5095 5.48741,-33.0744 12.4087,-48.4016 6.74174,-14.9303 15.7878,-28.9087 25.6146,-40.591 21.2799,-25.3016 47.7567,-39.8729 66.5788,-33.1949zm5.55591 36.0898c-3.34016,-1.28386 -7.59686,-2.91969 -16.1811,-5.96457 -5.72245,-2.03032 -18.5551,8.08465 -31.578,23.5689 -7.91457,9.40867 -15.2752,20.8335 -20.8666,33.2162 -5.413,11.9882 -9.03308,24.6579 -9.6567,36.9024 -1.08898,21.3874 7.52245,42.1831 33.1973,56.0741 14.5984,7.89922 38.302,6.74056 70.1115,5.18504 16.852,-0.82441 35.8087,-1.7504 57.665,-1.50945 6.68032,0.0732284 10.8933,-3.26103 12.6791,-7.56497 0.825591,-1.99016 1.25315,-4.11969 1.27559,-6.21142 0.0236221,-2.20276 -0.351969,-4.39252 -1.12913,-6.38977 -1.67953,-4.31693 -5.78622,-7.72323 -12.4134,-7.79646l0.250394 -31.8756c6.68268,0.0744095 10.8945,-3.25985 12.6803,-7.56379 0.825591,-1.99016 1.25315,-4.11851 1.27559,-6.2126 0.0248032,-2.20276 -0.351969,-4.3937 -1.12795,-6.38977 -1.67953,-4.31811 -5.78622,-7.7256 -12.4134,-7.79882l0.250394 -31.8756c6.48189,0.0720473 10.6524,-3.61181 12.4984,-8.28308 0.990946,-2.50866 1.45276,-5.20158 1.38543,-7.80827 -0.056693,-2.16024 -0.451181,-4.23071 -1.18228,-6.04725 -0.16063,-0.283465 -0.314173,-0.574016 -0.459449,-0.870473l14.3752 -7.02402 -14.3752 7.0004c-1.57677,-3.22677 -4.96536,-5.47914 -10.2661,-4.99134 -17.8961,1.64764 -31.8154,3.36496 -41.5548,4.56615 -10.5413,1.30039 -16.2449,2.00315 -22.1858,1.69606 -7.57087,-0.389764 -12.1949,-2.16732 -22.2543,-6.03189z"/>
  <path class="fil0" d="M646.513 898.013c-1.2,-7.06536 -5.17441,-12.9933 -10.624,-16.8591 -5.41654,-3.84331 -12.3543,-5.61142 -19.5201,-4.3937 -7.06536,1.2 -12.9933,5.17441 -16.8591,10.624 -3.83032,5.39764 -5.59725,12.3059 -4.40552,19.4445l0.0472441 -0.00826772c0.0637796,0.377953 0.11811,0.754725 0.164173,1.1315 1.39961,6.60355 5.24528,12.1394 10.4244,15.8126 5.39528,3.82796 12.3024,5.59725 19.4398,4.40552l-0.00826772 -0.0472441c0.375591,-0.0637796 0.750001,-0.116929 1.12323,-0.162992 6.61064,-1.39725 12.1488,-5.24528 15.8256,-10.4268 3.84213,-5.41654 5.61024,-12.3543 4.39252,-19.5201zm17.1272 -55.8591c15.4323,10.9476 26.6965,27.8103 30.124,47.9835 3.41103,20.0717 -1.67126,39.678 -12.6437,55.1469 -10.5815,14.9138 -26.6835,25.9335 -45.9591,29.7508 -1.21772,0.311811 -2.47323,0.529134 -3.75827,0.646063 -19.4658,2.84173 -38.3929,-2.25827 -53.4142,-12.9165 -14.9126,-10.5791 -25.9323,-26.6799 -29.7508,-45.9567 -0.311811,-1.21772 -0.529134,-2.47441 -0.646063,-3.75827 -2.84055,-19.4658 2.25945,-38.3941 12.9177,-53.4166 10.9488,-15.4335 27.8103,-26.6965 47.9835,-30.124 20.0717,-3.41103 39.6792,1.67126 55.1469,12.6449z"/>
  <path class="fil0" d="M963.949 742.545c6.24686,-6.2126 6.2752,-16.3158 0.0625985,-22.5626 -6.2126,-6.24686 -16.3158,-6.2752 -22.5626,-0.0625985 -12.5787,12.5693 -22.3524,27.4453 -27.8752,43.7788 -5.22166,15.4441 -6.62008,32.0729 -3.00709,49.18l15.6248 -3.2504 -15.6543 3.30709c0.3,1.41851 0.779528,2.75197 1.40906,3.98386l168.115 409.448c13.5709,33.0544 45.4985,62.2772 85.0902,80.941 24.6213,11.6079 52.3559,19.265 80.543,21.3095 28.4658,2.06339 57.5256,-1.60039 84.5221,-12.685 36.378,-14.9351 68.589,-43.1185 90.0131,-88.5638l184.232 -390.776c10.3595,-21.9768 9.64607,-43.8863 1.07953,-64.0524 -8.85119,-20.837 -26.2689,-39.4288 -48.2906,-53.7272 -7.38662,-4.79764 -17.2642,-2.69882 -22.0618,4.6878 -4.79764,7.38662 -2.69882,17.2642 4.6878,22.0618 16.8791,10.9595 29.9941,24.6567 36.2906,39.4784 5.08819,11.9799 5.53111,24.9591 -0.581103,37.9264l-184.232 390.776c-17.6894,37.5225 -43.8697,60.6225 -73.2627,72.6898 -22.0914,9.07087 -46.2402,12.0425 -70.1481,10.3087 -24.189,-1.75512 -48.0083,-8.33386 -69.1666,-18.3095 -32.7225,-15.4252 -58.7256,-38.6398 -69.2162,-64.1906l-168.008 -409.189c-2.04449,-10.8378 -1.05591,-21.3886 2.27244,-31.2307 3.87284,-11.4543 10.9358,-22.0961 20.1248,-31.278z"/>
  <path class="fil0" d="M1118.25 1215.43c-2.69173,-12.9437 -15.3697,-21.254 -28.3134,-18.5622 -12.9437,2.69173 -21.254,15.3697 -18.5622,28.3134 8.72009,41.2819 36.0083,72.0898 72.1666,91.8957 29.2878,16.0429 64.591,24.7335 100.173,25.6831 35.4378,0.946064 71.5064,-5.82638 102.499,-20.6965 39.1784,-18.7984 70.2745,-50.243 82.643,-95.1308 3.52087,-12.7358 -3.95079,-25.9169 -16.6866,-29.4378 -12.7358,-3.52087 -25.9169,3.95079 -29.4378,16.6866 -8.32442,30.2114 -29.8571,51.665 -57.143,64.7575 -24.0225,11.5264 -52.4622,16.7634 -80.7497,16.0075 -28.1445,-0.750001 -55.7953,-7.47638 -78.4217,-19.8697 -24.378,-13.3524 -42.6272,-33.424 -48.1666,-59.6469z"/>
  <path class="fil0" d="M639.253 957.437c-0.309449,-8.80158 -7.69843,-15.6851 -16.5,-15.3756 -8.80158,0.309449 -15.6851,7.69843 -15.3756,16.5 0.205512,5.85591 -0.183071,12.7961 -1.04291,20.5583 -0.892914,8.05631 -2.27717,16.7504 -4.01693,25.8709 -1.62165,8.66339 4.08662,17.0032 12.75,18.6248 8.66339,1.62165 17.0032,-4.08662 18.6248,-12.75 1.90984,-10.0122 3.4252,-19.5106 4.39252,-28.2449 1.00039,-9.02835 1.43858,-17.491 1.16811,-25.1835zm-51.1725 232.976c1.69134,-8.66339 -3.96142,-17.0587 -12.6248,-18.75 -8.66339,-1.69134 -17.0587,3.96142 -18.75,12.6248l-0.0496063 0.251575 -0.0153543 -0.00354331c-0.0625985,0.320079 -0.114567,0.638977 -0.157087,0.956694l-0.148819 0.768898 -0.0283465 -0.00590552c-0.0791339,0.411024 -0.142913,0.820867 -0.190158,1.22953 -5.05512,27.1559 -7.56969,53.5949 -5.02087,76.1847 2.90906,25.7847 12.2705,46.9241 31.3453,59.641 31.4481,20.9646 89.5347,42.2705 153.964,65.8997 102.845,37.7209 222.429,81.5812 263.849,134.65 28.7185,36.7949 64.3229,62.8583 99.7973,73.4044 24.7701,7.36418 49.5815,7.26851 72.2906,-1.78701 22.6016,-9.01064 42.6012,-26.6835 57.7394,-54.4418 22.6524,-41.5335 34.5851,-106.63 27.5457,-200.473 -0.655512,-8.80158 -8.32323,-15.4063 -17.1248,-14.7508 -8.80158,0.655512 -15.4063,8.32323 -14.7508,17.1248 6.54567,87.2623 -3.78307,146.386 -23.6693,182.849 -11.3339,20.7827 -25.6654,33.7595 -41.4898,40.0677 -15.7169,6.26693 -33.437,6.17008 -51.541,0.787796 -29.1815,-8.6752 -59.028,-30.8315 -83.6729,-62.406 -47.1012,-60.3485 -171.223,-105.872 -277.973,-145.025 -62.4591,-22.9063 -118.769,-43.5603 -147.215,-62.5241 -10.2473,-6.8315 -15.4713,-19.911 -17.3445,-36.5174 -2.16614,-19.1977 0.122835,-42.4996 4.64646,-66.8174 0.0862205,-0.329528 0.162992,-0.664961 0.229134,-1.00394l-0.0389764 -0.00708662 0.00708662 -0.0413386 0.011811 0.00236221 0.140551 -0.722835c0.0720473,-0.287008 0.13937,-0.578741 0.197244,-0.872835l-0.0271654 -0.00590552 0.00354331 -0.0188977 0.011811 0.00236221 0.0531496 -0.270473z"/>
 </g>
 <rect class="fil2" width="2048" height="2048"/>
</svg>
