<svg xmlns="http://www.w3.org/2000/svg" xmlns:xlink="http://www.w3.org/1999/xlink" viewBox="0,0,256,256" width="48px" height="48px" fill-rule="none"><g fill="none" fill-rule="none" stroke="none" stroke-width="1" stroke-linecap="butt" stroke-linejoin="miter" stroke-miterlimit="10" stroke-dasharray="" stroke-dashoffset="0" font-family="none" font-weight="none" font-size="none" text-anchor="none" style="mix-blend-mode: normal"><g transform="scale(5.33333,5.33333)"><path d="M12.999,8.445v19.111c0,1.901 1.544,3.445 3.445,3.445h25.111c1.901,0 3.445,-1.544 3.445,-3.445v-19.111c0,-1.901 -1.544,-3.445 -3.445,-3.445h-25.11c-1.902,-0.001 -3.446,1.543 -3.446,3.445z" fill="#0871c9" fill-rule="evenodd"></path><path d="M2.999,45.501v-28.056c0,-1.901 1.544,-3.445 3.445,-3.445h6.559l21.997,16.996v5.56c0,1.901 -1.544,3.445 -3.445,3.445h-19.434l-6.55,6.549c-0.273,0.279 -0.653,0.451 -1.072,0.451c-0.826,0 -1.5,-0.674 -1.5,-1.5z" fill="#19ac66" fill-rule="nonzero"></path><path d="M12.999,27.555v-13.556h18.556c1.901,0 3.445,1.544 3.445,3.445v13.556h-18.555c-1.902,0.001 -3.446,-1.543 -3.446,-3.445z" fill="#0c8045" fill-rule="nonzero"></path></g></g></svg>