<?xml version="1.0" encoding="UTF-8"?>
<!DOCTYPE svg PUBLIC "-//W3C//DTD SVG 1.1//EN" "http://www.w3.org/Graphics/SVG/1.1/DTD/svg11.dtd">
<!-- Creator: CorelDRAW -->
<svg xmlns="http://www.w3.org/2000/svg" xml:space="preserve" width="2048px" height="2048px" style="shape-rendering:geometricPrecision; text-rendering:geometricPrecision; image-rendering:optimizeQuality; fill-rule:evenodd; clip-rule:evenodd"
viewBox="0 0 2048 2048"
 xmlns:xlink="http://www.w3.org/1999/xlink">
 <defs>
  <style type="text/css">
   <![CDATA[
    .fil1 {fill:none}
    .fil0 {fill:#212121;fill-rule:nonzero}
   ]]>
  </style>
 </defs>
 <g id="Layer_x0020_1">
  <metadata id="CorelCorpID_0Corel-Layer"/>
  <path class="fil0" d="M782.636 768.677c66.2469,-66.2469 153.072,-99.3709 239.894,-99.3709 86.8229,0 173.648,33.124 239.894,99.3709 66.2469,66.2457 99.3709,153.071 99.3709,239.894 0,86.8217 -33.124,173.647 -99.3709,239.894 -66.2457,66.2457 -153.071,99.3698 -239.894,99.3698 -86.8217,0 -173.647,-33.124 -239.894,-99.3698 -66.2457,-66.2469 -99.3698,-153.072 -99.3698,-239.894 0,-86.8229 33.124,-173.648 99.3698,-239.894zm239.894 -36.4949c-70.7363,0 -141.473,26.9835 -195.438,80.9493 -53.9658,53.9646 -80.9493,124.702 -80.9493,195.44 0,70.7363 26.9835,141.473 80.9493,195.438 53.9658,53.9658 124.702,80.9493 195.438,80.9493 70.7375,0 141.475,-26.9835 195.44,-80.9493 53.9658,-53.9658 80.9493,-124.702 80.9493,-195.438 0,-70.7375 -26.9835,-141.475 -80.9493,-195.44 -53.9646,-53.9658 -124.702,-80.9493 -195.44,-80.9493z"/>
  <path class="fil0" d="M1262.42 1204.01c-12.2752,-12.274 -32.1792,-12.274 -44.4544,0 -12.2752,12.2752 -12.2752,32.1803 0,44.4555l107.521 107.521c12.2752,12.2752 32.1792,12.2752 44.4544,0 12.2752,-12.2752 12.2752,-32.1792 0,-44.4544l-107.521 -107.522z"/>
  <path class="fil0" d="M1372.69 1358.49l-0.272835 0.272835c-6.73938,6.82087 -10.1102,15.8102 -10.1102,24.8232 0,9.07796 3.42048,18.1358 10.2602,24.9744l296.346 296.346c6.83977,6.83977 15.8977,10.2614 24.9744,10.2614 9.07914,0 18.1335,-3.42166 24.9744,-10.2614l0.0011811 -0.0011811 0.0011811 -0.0011811c6.83859,-6.83859 10.2591,-15.8965 10.2591,-24.9732 0,-9.07914 -3.42048,-18.1347 -10.2591,-24.9744l-0.0011811 -0.0011811 -296.346 -296.345 -0.0011811 -0.0011811c-6.83859,-6.83859 -15.8953,-10.2591 -24.9732,-10.2591 -9.02481,0 -18.0295,3.38032 -24.8528,10.1398zm-44.1426 -44.7626c19.0677,-18.8339 44.0433,-28.2532 68.9953,-28.2532 25.141,0 50.3056,9.55985 69.4288,28.6807l0.0011811 0.0011811 296.345 296.345 0.0011811 0.0011811c19.1209,19.1209 28.6807,44.2878 28.6807,69.4288 0,25.1433 -9.55985,50.3067 -28.6807,69.4276l-0.0011811 0.0011811 -0.0011811 0.0011811c-19.1197,19.1197 -44.2878,28.6819 -69.4288,28.6819 -25.1433,0 -50.3091,-9.56221 -69.43,-28.6819l-296.346 -296.346c-19.1209,-19.1209 -28.6807,-44.2878 -28.6807,-69.4288 0,-25.141 9.55985,-50.3067 28.6795,-69.4288l-0.00236221 -0.00236221 0.43937 -0.427559zm44.1426 44.7626l-0.0354331 0.034252 -0.0838583 0.0874016 -0.00236221 -0.0011811"/>
  <path class="fil0" d="M1062.67 1416.54l-0.0011811 0.0437008 0.111024 0.00354331c-0.0271654,0.843308 -0.0885827,1.67599 -0.180709,2.49921 -0.752363,30.241 -4.81063,310.676 106.021,266.738 11.615,-7.71969 71.8819,-54.3485 127.397,-221.646 3.05788,3.85158 6.34843,7.54843 9.86457,11.0646l38.1662 38.1662c-61.03,163.813 -127.88,215.93 -142.878,225.984 -2.01496,1.50473 -4.24252,2.79213 -6.66497,3.81024l-12.1736 -28.9855 12.1583 28.9819c-200.23,84.0957 -195.382,-291.228 -194.519,-325.918 -0.0484252,-0.90945 -0.0614174,-1.82835 -0.0307087,-2.75433l0.106299 0.00236221c0.405118,-12.365 0.548032,-24.3295 0.453544,-35.9103 7.30985,0.431103 14.6563,0.65315 22.0288,0.65315 13.6382,0 27.1807,-0.745276 40.5839,-2.21103 0.141732,12.7772 0.00708662,25.9299 -0.437008,39.4784l-0.00472441 0zm286.586 -170.154c0.78189,-4.4126 1.56142,-8.83701 2.33032,-13.3358l30.9449 5.28071 -30.9886 -5.29134c0.681497,-3.98977 2.08819,-7.67599 4.06063,-10.9453 17.6658,-35.1886 252.17,-515.207 14.4662,-755.976l-0.0625985 0.0614174c-2.57835,-2.61024 -4.60394,-5.55945 -6.0815,-8.70237 -8.16497,-14.2701 -22.0855,-27.6248 -40.6311,-39.965 -81.8009,-54.43 -240.287,-82.9631 -403.649,-84.8233 -164.089,-1.86969 -331.077,23.2996 -428.889,76.278l0.0271654 0.0519685 -0.00354331 0.0011811 0.00354331 0.00590552 -0.340158 0.178347c-28.4788,15.4843 -50.2418,32.9197 -63.0721,52.2l-26.1567 -17.3162 26.1721 17.4154c-1.47874,2.22284 -3.19252,4.19764 -5.08701,5.91142 -243.629,249.382 14.4886,752.362 16.7162,756.714l0.0696851 -0.0366142c1.73504,3.41339 2.78504,6.99567 3.20315,10.591 61.4811,358.474 166.914,440.658 182.681,451.141 116.125,46.0359 106.126,-264.008 105.95,-269.284l-0.00472441 0 0 -0.0165354 -0.10748 0.00354331c-0.0283465,-0.895276 -0.0153543,-1.78228 0.0318898,-2.66103 -1.86614,-62.276 2.67992,-116.345 11.876,-162.141 5.65512,6.49961 11.55,12.8291 17.6894,18.9697 11.7354,11.7343 24.1536,22.591 37.1587,32.537 -3.75827,32.0422 -5.31024,68.2961 -4.09252,108.807 0.0944883,0.839764 0.155906,1.69016 0.18189,2.54882l-31.4221 0.969686 31.3146 -0.859843c0.0366142,1.18701 15.0165,413.967 -192.581,329.228 -1.86732,-0.650788 -3.69922,-1.48228 -5.47323,-2.50984l0.0377953 -0.0649607c-0.82441,-0.466536 -143.038,-79.4989 -214.614,-493.166 -25.3547,-51.1335 -265.216,-555.077 -4.33583,-823.655 18.9142,-27.4051 47.6374,-50.8512 83.6977,-70.4764l0.542126 -0.303544 14.9823 27.639 -14.8583 -27.6319c107.085,-58.0477 285.587,-85.6761 459.194,-83.6977 174.388,1.9878 345.868,33.9744 437.789,95.139 26.2063,17.4366 46.663,37.5 59.9493,60.2493 259.458,268.804 20.1319,771.661 -5.19922,822.738 -0.386221,2.2252 -0.783071,4.39134 -1.17284,6.59882 -4.61339,-0.496063 -9.27166,-0.747638 -13.9606,-0.747638 -12.1843,0 -24.1736,1.70079 -35.6599,4.97717l-12.626 -12.6272z"/>
  <path class="fil0" d="M1261.97 581.741c8.35276,15.5327 27.7181,21.3532 43.2508,13.0004 15.5327,-8.35276 21.3532,-27.7181 13.0004,-43.2508 -11.0457,-20.3776 -28.715,-38.1544 -51.6307,-53.4012 -74.1686,-49.3512 -211.871,-75.1512 -351.662,-76.7445 -138.998,-1.58386 -282.109,20.6398 -368.233,67.3252 -30.7276,16.6559 -55.0619,36.7181 -70.7658,60.3201 -9.73347,14.7047 -5.70473,34.5177 9.00001,44.2512 14.7047,9.73347 34.5177,5.70473 44.2512,-9.00001 9.60237,-14.4319 26.0941,-27.574 47.765,-39.3201 76.6701,-41.5607 208.119,-61.2993 337.481,-59.8252 128.569,1.46457 253.047,23.7496 316.911,66.2445 14.2961,9.51142 24.8209,19.6819 30.6307,30.4004z"/>
 </g>
 <rect class="fil1" width="2048" height="2048"/>
</svg>
