<svg xmlns="http://www.w3.org/2000/svg" width="48" height="48.001" viewBox="0 0 48 48.001">
  <g>
    <circle cx="24" cy="38.546" r="0.728" fill="#1a171b"/>
    <path d="M44.364,3.879H35.853L32.186.213A.723.723,0,0,0,31.672,0H9.541a.729.729,0,0,0-.728.727V3.879H3.637A3.641,3.641,0,0,0,0,7.516V38.545a3.64,3.64,0,0,0,3.637,3.637H16.2l-1.455,4.363H9.455a.728.728,0,0,0,0,1.456H38.546a.728.728,0,0,0,0-1.456H33.252L31.8,42.182H44.364A3.64,3.64,0,0,0,48,38.545V7.516A3.64,3.64,0,0,0,44.364,3.879ZM32.4,2.483,36.7,6.788H32.4ZM10.268,1.455H30.945V7.516a.728.728,0,0,0,.727.727h6.061V23.958L29.979,21.3a.728.728,0,0,0-.924.924l3.686,10.742a.723.723,0,0,0,.656.49.177.177,0,0,0,.032,0,.727.727,0,0,0,.664-.434l2.06-4.627,1.581-.7v7.217H10.268ZM38.5,25.758l-3.193,1.42a.729.729,0,0,0-.369.369L33.516,30.74l-2.6-7.586ZM1.455,7.516A2.185,2.185,0,0,1,3.637,5.334H8.813V34.908H1.455ZM16.282,46.545l1.455-4.363H30.264l1.454,4.363Zm30.264-8a2.185,2.185,0,0,1-2.182,2.182H3.637a2.185,2.185,0,0,1-2.182-2.182V36.363H46.546v2.182Zm0-3.637H39.187V27.043l1.593-.709a.726.726,0,0,0-.06-1.351l-1.534-.527V7.517A.734.734,0,0,0,38.973,7L37.306,5.335h7.057a2.185,2.185,0,0,1,2.182,2.182V34.908Z" fill="#1a171b"/>
    <path d="M20.242,6.787h7.211a.727.727,0,1,0,0-1.454H20.242a.727.727,0,1,0,0,1.454Z" fill="#1a171b"/>
    <path d="M16.363,5.334H14.424a.727.727,0,0,0,0,1.454h1.939a.727.727,0,1,0,0-1.454Z" fill="#1a171b"/>
    <path d="M29.392,12.848h3.88a.727.727,0,0,0,0-1.454h-3.88a.727.727,0,0,0,0,1.454Z" fill="#1a171b"/>
    <path d="M20.242,12.848h5.271a.727.727,0,1,0,0-1.454H20.242a.727.727,0,1,0,0,1.454Z" fill="#1a171b"/>
    <path d="M16.363,11.4H14.424a.727.727,0,0,0,0,1.454h1.939a.727.727,0,1,0,0-1.454Z" fill="#1a171b"/>
    <path d="M20.242,18.908h13.03a.727.727,0,0,0,0-1.454H20.242a.727.727,0,1,0,0,1.454Z" fill="#1a171b"/>
    <path d="M16.363,17.455H14.424a.727.727,0,1,0,0,1.454h1.939a.727.727,0,1,0,0-1.454Z" fill="#1a171b"/>
    <path d="M20.242,24.969h6.241a.727.727,0,1,0,0-1.454H20.242a.727.727,0,1,0,0,1.454Z" fill="#1a171b"/>
    <path d="M16.363,23.516H14.424a.727.727,0,1,0,0,1.454h1.939a.727.727,0,1,0,0-1.454Z" fill="#1a171b"/>
    <path d="M28.423,29.576H20.242a.727.727,0,1,0,0,1.454h8.181a.727.727,0,1,0,0-1.454Z" fill="#1a171b"/>
    <path d="M16.363,29.576H14.424a.727.727,0,1,0,0,1.454h1.939a.727.727,0,1,0,0-1.454Z" fill="#1a171b"/>
  </g>
</svg>
