<?xml version="1.0" encoding="utf-8"?>
<!-- Generator: Adobe Illustrator 27.5.0, SVG Export Plug-In . SVG Version: 6.00 Build 0)  -->
<svg version="1.1" xmlns="http://www.w3.org/2000/svg" xmlns:xlink="http://www.w3.org/1999/xlink" x="0px" y="0px"
	 viewBox="0 0 3500 2500" style="enable-background:new 0 0 3500 2500;" xml:space="preserve">
<g id="BG">
	<rect x="0" style="fill:#FFFFFF;" width="3500" height="2500"/>
</g>
<g id="room">
	<path style="fill:#D9F1FF;" d="M290.301,2172.068c355.044-163.117,162.546-461.408,72.05-1007.886
		C96.666,398.513,877.62-58.495,1529.75,470.564c561.347,391.955,968.808-139.597,1432.217,354.895
		c313.92,334.977,52.755,712.932,45.041,987.237c-6.081,216.229,202.691,359.372,202.691,359.372H290.301z"/>
	<path d="M3204.709,2181.833H265.292c-2.881,0-5.217-2.336-5.217-5.217l0,0c0-2.881,2.336-5.217,5.217-5.217h2939.417
		c2.881,0,5.217,2.336,5.217,5.217l0,0C3209.926,2179.497,3207.59,2181.833,3204.709,2181.833z"/>
	<g>
		<rect x="645.169" y="649.331" style="fill:#B8E5FF;" width="637.62" height="618.89"/>
		<g>
			<defs>
				<rect id="SVGID_1_" x="665.772" y="672.143" width="597.688" height="577.176"/>
			</defs>
			<clipPath id="SVGID_00000069371429745964505350000017873858129777166011_">
				<use xlink:href="#SVGID_1_"  style="overflow:visible;"/>
			</clipPath>
			
				<rect x="665.772" y="672.143" style="clip-path:url(#SVGID_00000069371429745964505350000017873858129777166011_);fill:#FFFFFF;" width="597.688" height="577.176"/>
			<g style="clip-path:url(#SVGID_00000069371429745964505350000017873858129777166011_);">
				<path style="fill:#F2FAFF;" d="M1312.21,1302.341V971.178c-0.11-0.015-0.219-0.034-0.333-0.034
					c-1.537-0.195-3.033,0.877-3.021,2.491v24.278c-11.162,2.038-9.558,13.133-9.506,22.23
					c-17.425,6.029-16.304,22.506-15.853,38.463h-13.604v48.784c-12.448,5.578-20.456,13.389-20.456,23.437v81.238h-15.782V889.56
					h-13.168v-30.847h-75.511v30.847h-13.337v266.314h-13.394v-147.033l-44.391-26.187v-43.605h-30.984v-0.017h-5.849v0.017h-0.049
					v23.708c-0.16,0.143-0.606,0.453-0.786,0.579v0.052l-28.648,30.552v210.252c-2.404,0.343-4.262,1.089-6.638,2.673
					c-2.606,1.737-3.561,3.667-5.27,5.201h-6.923v-87.177h-21.65V907.182l-73.125,74.499v143.208h-17.136v-0.229h-8.089V975.143
					H814.44v236.923h-0.065v-193.141h-61.737v80.679h-53.187v62.38l-2.707-1.795h-17.196v-62.704h-24.132v-16.474h-38.206v221.33
					H1312.21z"/>
			</g>
		</g>
		<rect x="944.947" y="659.42" style="fill:#B8E5FF;" width="19.669" height="608.8"/>
		
			<rect x="954.145" y="647.821" transform="matrix(-1.836970e-16 1 -1 -1.836970e-16 1927.7999 -0.1591)" style="fill:#B8E5FF;" width="19.668" height="631.999"/>
	</g>
</g>
<g id="saline_solution">
	<g>
		<g>
			<g>
				<rect x="2134.498" y="803.344" style="fill:#499CC7;" width="21.637" height="1294.431"/>
				<path style="fill:#499CC7;" d="M1974.286,2118.447c75.924-19.495,266.138-19.495,342.062,0h32.031v-14.155
					c0-46.017-406.123-46.017-406.123,0v14.155H1974.286z"/>
				<g>
					<g>
						<g>
							<ellipse style="fill:#2D4254;" cx="2194.268" cy="2153.954" rx="18.062" ry="18.144"/>
							<ellipse style="fill:#306682;" cx="2194.268" cy="2153.954" rx="12.041" ry="12.096"/>
						</g>
						<rect x="2192.879" y="2116.17" style="fill:#306682;" width="13.378" height="37.784"/>
						<rect x="2192.879" y="2116.17" style="fill:#2D4254;" width="13.378" height="17.726"/>
					</g>
					<path style="fill:#499CC7;" d="M2202.501,2097.775c9.925,0.505,17.469,12.403,15.919,24.807h-38.069
						c0.098-14.069-9.925-20.37-22.783-24.807H2202.501z"/>
				</g>
				<g>
					<g>
						<g>
							<ellipse style="fill:#2D4254;" cx="2326.212" cy="2153.935" rx="18.062" ry="18.144"/>
							<ellipse style="fill:#306682;" cx="2326.212" cy="2153.935" rx="12.041" ry="12.096"/>
						</g>
						<rect x="2324.823" y="2116.151" style="fill:#306682;" width="13.379" height="37.783"/>
						<rect x="2324.823" y="2116.151" style="fill:#2D4254;" width="13.379" height="17.726"/>
					</g>
					<rect x="2317.596" y="2116.151" style="fill:#499CC7;" width="26.678" height="6.435"/>
				</g>
				<g>
					<g>
						<g>
							<ellipse style="fill:#2D4254;" cx="1963.283" cy="2153.935" rx="18.062" ry="18.144"/>
							<ellipse style="fill:#306682;" cx="1963.283" cy="2153.935" rx="12.041" ry="12.096"/>
						</g>
						<rect x="1951.294" y="2116.151" style="fill:#306682;" width="13.378" height="37.783"/>
						<rect x="1951.294" y="2116.151" style="fill:#2D4254;" width="13.378" height="17.726"/>
					</g>
					<rect x="1945.221" y="2116.151" style="fill:#499CC7;" width="26.678" height="6.435"/>
				</g>
				<rect x="2183.136" y="2119.368" style="fill:#499CC7;" width="29.194" height="6.726"/>
			</g>
			<path style="fill:#306682;" d="M1936.098,847.038c-1.904,0-3.709-0.433-5.401-1.3c-6.509-3.333-8.627-11.955-8.714-12.32
				c-0.32-1.343,0.51-2.691,1.853-3.011c1.342-0.322,2.688,0.508,3.01,1.849c0.036,0.144,1.718,6.785,6.145,9.039
				c2.035,1.035,4.371,0.984,7.145-0.158c10.454-4.305,5.645-17.464,5.435-18.022c-0.289-0.768-0.184-1.631,0.283-2.306
				c0.467-0.674,1.234-1.08,2.055-1.08h394.82c0.732,0,1.428,0.321,1.903,0.879c0.475,0.557,0.682,1.295,0.565,2.018
				c-0.02,0.121-1.888,12.537,5.298,15.477c3.842,1.571,6.851,1.658,8.943,0.253c4.166-2.797,4.282-10.743,4.282-10.822
				c0-1.381,1.119-2.5,2.5-2.5s2.5,1.119,2.5,2.5c0,0.433-0.074,10.663-6.495,14.974c-3.56,2.39-8.144,2.465-13.623,0.223
				c-8.157-3.337-8.827-13.079-8.61-18.002h-388.748c1.5,6.817,0.899,16.87-9.204,21.03
				C1939.97,846.612,1937.984,847.038,1936.098,847.038z"/>
		</g>
		<g>
			<path style="fill:#BFE9FF;" d="M2161.541,1430.942l-0.902-3.896c190.766-44.217,190.766-248.404,190.766-335.596h4
				c0,43.204,0,115.514-24.152,184.168C2301.771,1359.415,2244.673,1411.674,2161.541,1430.942z"/>
			<g>
				
					<rect x="2018.248" y="1141.764" transform="matrix(-1 -1.224647e-16 1.224647e-16 -1 4287.3047 2390.469)" style="fill:#8CD6FF;" width="250.808" height="106.94"/>
				<polygon style="fill:#4BA8D6;" points="2269.056,1141.764 2242.064,1141.764 2242.064,1217.985 2188.066,1238.144 
					2188.066,1279.903 2269.056,1279.903 				"/>
				<polygon style="fill:#8CD6FF;" points="2045.863,1141.764 2018.871,1141.764 2018.871,1217.985 1964.872,1238.144 
					1964.872,1279.903 2045.863,1279.903 				"/>
				
					<rect x="1964.872" y="1238.144" transform="matrix(-1 -1.224647e-16 1.224647e-16 -1 4152.938 2518.0471)" style="fill:#8CD6FF;" width="223.193" height="41.759"/>
				<polygon style="fill:#B0E1FF;" points="2242.064,1217.985 2018.871,1217.985 1964.872,1238.144 2188.066,1238.144 				"/>
			</g>
			<g>
				<circle style="fill:#4BA8D6;" cx="2195.114" cy="1202.283" r="7.049"/>
				<circle style="fill:#4BA8D6;" cx="2167.528" cy="1202.283" r="7.049"/>
				<circle style="fill:#4BA8D6;" cx="2140.52" cy="1202.283" r="7.049"/>
				<circle style="fill:#4BA8D6;" cx="2115.441" cy="1202.283" r="7.049"/>
			</g>
			
				<rect x="2032.917" y="1195.235" transform="matrix(-1 -1.224647e-16 1.224647e-16 -1 4117.5117 2404.5662)" style="fill:#4BA8D6;" width="51.678" height="14.097"/>
			
				<rect x="2032.917" y="1158.986" transform="matrix(-1 -1.224647e-16 1.224647e-16 -1 4253.8701 2332.0693)" style="fill:#4BA8D6;" width="188.036" height="14.097"/>
			
				<rect x="1979.542" y="1248.705" transform="matrix(-1 -1.224647e-16 1.224647e-16 -1 4012.459 2520.4441)" style="fill:#4BA8D6;" width="53.375" height="23.035"/>
			<g>
				<path style="fill:#357899;" d="M2011.808,1261.121c0,3.447,2.794,6.241,6.241,6.241c3.447,0,6.241-2.794,6.241-6.241
					c0-3.447-2.794-6.241-6.241-6.241C2014.602,1254.881,2011.808,1257.675,2011.808,1261.121z"/>
				<path style="fill:#357899;" d="M2006.229,1261.267c0,2.803,1.366,5.075,3.051,5.075c1.685,0,3.051-2.272,3.051-5.075
					s-1.366-5.075-3.051-5.075C2007.595,1256.192,2006.229,1258.464,2006.229,1261.267z"/>
				<polygon style="fill:#357899;" points="2009.105,1266.342 2018.049,1267.363 2018.049,1254.881 2009.105,1256.154 				"/>
			</g>
			<path style="fill:#357899;" d="M1653.645,2174.419c-80.305,0-137.29-0.538-138.14-0.546l0.031-3.216
				c1.279,0.013,129.474,1.223,273.018,0c70.401-0.599,122.078-29.898,157.984-72.59c28.412-33.782,46.747-81.925,54.495-143.092
				c8.624-68.083,4.425-154.474-12.479-256.774c-7.924-47.949-14.379-133.575-16.849-223.463
				c-2.497-90.911-0.087-161.508,6.289-184.239c8.799-31.368,30.943-30.976,31.166-30.984l-0.109,3.213
				c-0.844-0.025-19.892-0.125-27.961,28.639c-13.293,47.39-6.633,301.808,10.635,406.31
				c16.956,102.606,21.16,189.31,12.497,257.701c-7.827,61.791-26.407,110.495-55.224,144.759
				c-36.546,43.454-89.02,73.128-160.417,73.735C1740.482,2174.282,1694.102,2174.419,1653.645,2174.419z M2009.057,1262.728
				c-0.002,0-0.004,0-0.006,0l0.054-1.607L2009.057,1262.728z"/>
		</g>
		<g>
			<g>
				<g>
					<path style="fill:#FFFFFF;" d="M2390.604,864.048c0-6.823-73.363-6.823-73.363,0v144.257c0,5.293,2.917,10.155,7.587,12.647
						l15.826,8.444v21.766h23.735v-21.766l18.047-8.6c4.99-2.378,8.168-7.413,8.168-12.94V864.048z"/>
					<path style="fill:#BFE9FF;" d="M2324.316,961.485v46.819c0,2.686,1.473,5.141,3.843,6.407l19.57,10.442v18.935h9.586v-19.157
						l22.078-10.52c2.513-1.198,4.137-3.771,4.137-6.555v-46.37H2324.316z"/>
					<path style="fill:#FFFFFF;" d="M2347.739,1045.938v13.258c0,2.635,2.136,4.772,4.771,4.772s4.771-2.136,4.771-4.772v-13.258
						H2347.739z"/>
				</g>
				<path style="opacity:0.5;fill:#FFFFFF;" d="M2341.949,1008.154h-4.804c-3.198,0-5.79-2.592-5.79-5.79v-101.27
					c0-3.198,2.592-5.79,5.79-5.79h4.804c3.198,0,5.791,2.592,5.791,5.79v101.27
					C2347.739,1005.561,2345.147,1008.154,2341.949,1008.154z"/>
			</g>
			<g>
				<rect x="2332.969" y="1056.715" style="fill:#4BA8D6;" width="40.495" height="7.253"/>
				<path style="fill:#4BA8D6;" d="M2360.259,1087.93v-26.439h-14.084v26.439c0,3.889,3.153,7.042,7.042,7.042l0,0
					C2357.106,1094.973,2360.259,1091.82,2360.259,1087.93z"/>
			</g>
			<path style="fill:#FFFFFF;" d="M2354.923,865.492h-2v-1.583c0-5.467-1.487-11.02-4.421-16.503
				c-1.599-2.988-1.652-6.062-0.156-8.888c0.914-1.727,2.221-2.847,3.883-3.33c3.237-0.939,6.61,0.955,6.753,1.036l-0.99,1.738
				c-0.027-0.016-2.795-1.557-5.214-0.85c-1.134,0.332-2.006,1.098-2.664,2.342c-1.188,2.243-1.136,4.601,0.152,7.009
				c3.09,5.777,4.657,11.647,4.657,17.447V865.492z"/>
		</g>
		<g>
			<g>
				<g>
					<path style="fill:#FFFFFF;" d="M1974.516,864.048c0-6.823-73.363-6.823-73.363,0v144.257c0,5.293,2.917,10.155,7.587,12.647
						l15.826,8.444v21.766h23.735v-21.766l18.047-8.6c4.99-2.378,8.168-7.413,8.168-12.94V864.048z"/>
					<path style="fill:#BFE9FF;" d="M1908.228,961.485v46.819c0,2.686,1.473,5.141,3.843,6.407l19.57,10.442v18.935h9.586v-19.157
						l22.078-10.52c2.513-1.198,4.137-3.771,4.137-6.555v-46.37H1908.228z"/>
					<path style="fill:#FFFFFF;" d="M1931.651,1045.938v13.258c0,2.635,2.136,4.772,4.771,4.772s4.772-2.136,4.772-4.772v-13.258
						H1931.651z"/>
				</g>
				<path style="opacity:0.5;fill:#FFFFFF;" d="M1925.86,1008.154h-4.804c-3.198,0-5.79-2.592-5.79-5.79v-101.27
					c0-3.198,2.592-5.79,5.79-5.79h4.804c3.198,0,5.79,2.592,5.79,5.79v101.27
					C1931.651,1005.561,1929.058,1008.154,1925.86,1008.154z"/>
			</g>
			<path style="fill:#FFFFFF;" d="M1938.835,865.492h-2v-1.583c0-5.467-1.487-11.02-4.421-16.503
				c-1.599-2.988-1.653-6.061-0.157-8.888c0.914-1.727,2.221-2.847,3.883-3.33c3.232-0.94,6.611,0.955,6.754,1.036l-0.992,1.737
				l0.496-0.869l-0.494,0.87c-0.027-0.016-2.801-1.556-5.215-0.85c-1.134,0.332-2.006,1.098-2.664,2.342
				c-1.187,2.243-1.135,4.601,0.153,7.009c3.09,5.777,4.657,11.647,4.657,17.447V865.492z"/>
		</g>
		<rect x="2125.561" y="1450.56" style="fill:#499CC7;" width="39.758" height="271.273"/>
		<rect x="2123.313" y="1445.579" style="fill:#8CD6FF;" width="43.468" height="12.583"/>
		<rect x="2123.313" y="1711.038" style="fill:#8CD6FF;" width="43.468" height="12.583"/>
	</g>
</g>
<g id="table">
	<g>
		<g>
			<path style="fill:#FFFFFF;" d="M923.556,1379.268c-1.797,0.014-3.495,0.042-5.079,0.057v-18.846h-26.005v719.139h26.005v-674.175
				c1.584-0.014,3.282-0.042,5.079-0.057c24.944-0.297,69.908-0.806,95.389-1.061c9.465-0.099,16.243-0.156,18.294-0.156v-26.118
				C1029.458,1378.051,957.993,1378.872,923.556,1379.268z"/>
			<rect x="888.057" y="1376.749" style="fill:#FFFFFF;" width="35.499" height="35.669"/>
			<path style="fill:#F2FAFF;" d="M1018.945,1397.817v6.508c-25.481,0.255-70.445,0.764-95.39,1.061v7.032h-5.079v153.046
				l-12.663-3.65c0.198-4.047,0.028-120.872,0-146.17c0-2.094,0-3.226,0-3.226h4.994v-19.822h12.748v5.221H1018.945z"/>
		</g>
		<g>
			<rect x="988.34" y="1371.098" style="fill:#4BA8D6;" width="349.126" height="59.698"/>
			<rect x="1125.238" y="1371.098" style="fill:#8CD6FF;" width="212.228" height="59.698"/>
			<rect x="1125.238" y="1386.022" style="fill:#4BA8D6;" width="212.228" height="7.462"/>
			<rect x="972.844" y="1371.098" style="fill:#FFFFFF;" width="382.304" height="14.763"/>
			<path style="fill:#FFFFFF;" d="M1103.089,1412.12H982.102c-0.552,0-1-0.447-1-1v-33.926h2v32.926h118.987v-39.022h2v40.022
				C1104.089,1411.673,1103.642,1412.12,1103.089,1412.12z"/>
		</g>
		<rect x="892.471" y="1412.418" style="fill:#C4E8FF;" width="26.005" height="3.226"/>
		<path style="fill:#FFFFFF;" d="M756.038,2115.096c75.924-19.495,266.138-19.495,342.062,0h32.031v-14.155
			c0-46.017-406.123-46.017-406.123,0v14.155H756.038z"/>
		<g>
			<g>
				<g>
					<ellipse style="fill:#2D4254;" cx="976.021" cy="2150.603" rx="18.062" ry="18.144"/>
					<ellipse style="fill:#FFFFFF;" cx="976.021" cy="2150.603" rx="12.041" ry="12.096"/>
				</g>
				<rect x="974.631" y="2112.82" style="fill:#FFFFFF;" width="13.379" height="37.783"/>
				<rect x="974.631" y="2112.82" style="fill:#8CD6FF;" width="13.379" height="17.726"/>
			</g>
			<path style="fill:#FFFFFF;" d="M984.253,2094.424c9.925,0.505,17.47,12.404,15.919,24.807h-38.069
				c0.098-14.07-9.925-20.37-22.783-24.807H984.253z"/>
		</g>
		<g>
			<g>
				<g>
					<ellipse style="fill:#2D4254;" cx="1107.964" cy="2150.584" rx="18.062" ry="18.144"/>
					<ellipse style="fill:#FFFFFF;" cx="1107.964" cy="2150.584" rx="12.041" ry="12.096"/>
				</g>
				<rect x="1106.575" y="2112.8" style="fill:#FFFFFF;" width="13.379" height="37.783"/>
				<rect x="1106.575" y="2112.8" style="fill:#8CD6FF;" width="13.379" height="17.726"/>
			</g>
			<rect x="1099.348" y="2109.205" style="fill:#FFFFFF;" width="26.678" height="10.03"/>
		</g>
		<g>
			<g>
				<g>
					<ellipse style="fill:#2D4254;" cx="745.035" cy="2150.584" rx="18.062" ry="18.144"/>
					<ellipse style="fill:#FFFFFF;" cx="745.035" cy="2150.584" rx="12.041" ry="12.096"/>
				</g>
				<rect x="733.046" y="2112.8" style="fill:#FFFFFF;" width="13.379" height="37.783"/>
				<rect x="733.046" y="2112.8" style="fill:#8CD6FF;" width="13.379" height="17.726"/>
			</g>
			<rect x="726.974" y="2112.8" style="fill:#FFFFFF;" width="26.678" height="6.435"/>
		</g>
		<rect x="964.889" y="2116.018" style="fill:#FFFFFF;" width="29.194" height="6.726"/>
		<rect x="1079.488" y="1360.962" style="fill:#8CD6FF;" width="214.253" height="9.516"/>
		<g>
			<g>
				<polygon style="fill:#FFFFFF;" points="1066.097,1370.382 1020.353,1370.382 1016.46,1304.95 1069.99,1304.95 				"/>
				<polygon style="fill:#8CD6FF;" points="1021.858,1341.529 1023.384,1367.166 1063.067,1367.166 1064.592,1341.529 				"/>
			</g>
			<polygon style="opacity:0.3;fill:#FFFFFF;" points="1038.089,1367.166 1027.052,1367.166 1023.979,1310.2 1035.016,1310.2 			"/>
		</g>
		<rect x="1112.6" y="1329.359" style="fill:#FFFFFF;" width="31.808" height="31.808"/>
	</g>
</g>
<g id="doctor">
	<g>
		<g>
			<g>
				<g>
					<g>
						<path style="fill:#363636;" d="M1327.113,2178.31l96.706-0.332c1.987-1.143,3.455-2.434,4.322-3.898
							c4.735-71.941,11.787-106.595,11.787-106.595l-67.362-2.511l-15.063,53.559
							C1334.993,2134.033,1308.208,2167.209,1327.113,2178.31z"/>
						<path style="fill:#363636;" d="M1431.154,2179.251l-114.651,0.393c-2.907,0.01-1.986-15.938,0.921-15.948l113.969,0.251
							C1434.385,2163.937,1434.146,2179.241,1431.154,2179.251z"/>
					</g>
					<path style="fill:#595959;" d="M1457.181,1437.692c-28.013,85.722-51.204,320.219-91.12,653.804l68.65,3.381
						c20.278-100.511,43.349-151.51,66.468-296.376c53.234-121.404,81.98-236.674,97.276-354.636L1457.181,1437.692z"/>
				</g>
				<g>
					<path style="fill:#595959;" d="M1550.123,1441.753c6.548,177.932,61.782,366.533,61.782,366.533
						c8.022,153.546,2.384,177.757,9.481,287.415l62.033-1.036c4.833-74.814,69.839-410.573,7.493-646.759L1550.123,1441.753z"/>
					<path style="fill:#363636;" d="M1621.386,2095.7c-5.432,29.655-9.324,52.789-6.908,79.603l150.256,2.409
						c0,0,14.823-14.536-3.95-36.198c-18.773-21.662-54.238-8.97-77.364-46.852L1621.386,2095.7z"/>
					<path style="fill:#363636;" d="M1771.558,2178.083l-159.627,0.548c-2.907,0.01-2.199-15.938,0.708-15.948l158.953,0.097
						C1774.585,2162.77,1774.55,2178.073,1771.558,2178.083z"/>
				</g>
			</g>
			<path style="fill:#FFFFFF;" d="M1992.253,1341.436l-49.979,51.479l-1.597,1.651c0,0-168.606-76.849-187.834-99.228
				c-7.428-8.65-20.139-25.112-34.523-44.341c-6.656-8.885-13.676-18.371-20.696-27.953c-17.074-23.248-34.169-47.031-46.195-64.137
				c-24.351-34.641,31.661-107.073,66.302-92.947c2.562,1.05,5.006,2.562,7.299,4.609l106.891,157.802L1992.253,1341.436z"/>
			<g>
				<path style="fill:#AAE0FF;" d="M1461.923,1070.883c34.349-25.594,152.215-45.463,227.649-10.103
					c32.103,4.09,14.919,414.513,14.919,414.513h-255.025L1461.923,1070.883z"/>
				<path style="fill:#F79B88;" d="M1598.663,1085.876c-40.546,5.9-65.76-22.396-71.689-34.227l16.318-101.302l32.995,14.726
					c13.482,1.117,26.959,4.347,38.55,8.925l10.461,54.027l2.308,11.716C1632.869,1051.272,1639.209,1079.976,1598.663,1085.876z"/>
				<path style="fill:#E6836F;" d="M1553.847,976.073c1.319,12.533,17.811,63.326,72.562,58.049l-10.162-52.841L1553.847,976.073z"
					/>
				<g>
					<g>
						<g>
							<path style="fill:#F79B88;" d="M1681.293,912.778c-1.876,16.465-6.44,52.45-12.785,67.503
								c-9.66,22.917-39.545,41.465-59.059,38.311c-22.013-5.355-48.418-22.224-59.245-41.747
								c-5.069-13.69-13.312-44.813-13.574-69.564c-0.547-51.626,44.12-80.718,86.649-75.892
								C1665.807,836.214,1687.142,861.448,1681.293,912.778z"/>
							<path style="fill:#73382A;" d="M1539.87,942.342c-3.313-18.057,10.195-20.2,18.593-4.151
								c1.83-12.117,0.471-49.962,15.807-57.012c17.441-8.303,72.588,17.164,114.398-4.131c0,0-5.4-58.086-90.745-54.623
								C1497.525,837.838,1539.87,942.342,1539.87,942.342z"/>
							
								<ellipse transform="matrix(0.9547 -0.2977 0.2977 0.9547 -209.0067 501.0667)" style="fill:#F79B88;" cx="1540.721" cy="936.795" rx="15.397" ry="19.946"/>
						</g>
						<g>
							<path style="fill:#A65B4A;" d="M1649.144,981.556c-3.271,0.602-9.029,3.326-14.716,6.338
								c-8.256,4.379-16.348,9.369-16.348,9.369s-24.434-14.771-23.763-38.487c0.329,0.365,0.665,0.716,1.008,1.068
								C1614.305,979.41,1649.144,981.556,1649.144,981.556z"/>
							<path style="fill:#FFFFFF;" d="M1649.144,981.556c-3.271,0.602-9.029,3.326-14.716,6.338
								c-24.772-5.671-34.956-18.991-39.103-28.049C1614.305,979.41,1649.144,981.556,1649.144,981.556z"/>
							<path style="fill:#A65B4A;" d="M1647.835,970.06c-4.964-0.306-8.835-3.185-8.895-3.23c-0.444-0.337-0.531-0.97-0.194-1.415
								c0.336-0.444,0.97-0.533,1.415-0.197c0.327,0.248,8.083,5.977,15.113,0.551c3.861-2.979,2.854-4.973,0.166-10.304
								c-2.549-5.053-6.402-12.69-7.737-25.673c-0.057-0.555,0.347-1.052,0.902-1.108c0.552-0.058,1.052,0.347,1.109,0.902
								c1.297,12.612,5.048,20.048,7.531,24.97c2.774,5.496,4.447,8.815-0.735,12.815
								C1653.589,969.625,1650.548,970.227,1647.835,970.06z"/>
							<g>
								<path style="fill:#1E1E1E;" d="M1620.894,920.235c-0.234,3.8-2.121,6.776-4.215,6.647c-2.094-0.129-3.601-3.314-3.367-7.114
									c0.234-3.8,2.121-6.776,4.215-6.647C1619.62,913.25,1621.128,916.435,1620.894,920.235z"/>
								<path style="fill:#1E1E1E;" d="M1674.017,922.723c-0.213,3.461-1.932,6.172-3.839,6.055
									c-1.907-0.117-3.281-3.019-3.067-6.48c0.213-3.461,1.932-6.172,3.839-6.055
									C1672.857,916.361,1674.23,919.262,1674.017,922.723z"/>
							</g>
						</g>
					</g>
					<path style="fill:#73382A;" d="M1677.861,879.765c0,0,41.865-4.083,28.787-44.933c-12.969,13.192-26.162,6.742-26.162,6.742
						s15.379-19.277-10.05-47.492c-4.056,17.598-38.983,25.342-58.98,20.157c-31.663-8.209-63.706,3.117-67.104,33.675
						c0,0-20.719,5.051-13.501,46.228c31.991-1.124,46.149-30.292,69.743-34.517
						C1624.188,855.401,1644.264,884.516,1677.861,879.765z"/>
					<path style="fill:#A65B4A;" d="M1637.429,1012.228c0,0-14.938,3.505-23.151,3.31c-10.841-0.258-27.983-6.255-27.983-6.255
						l28.453,15.22L1637.429,1012.228z"/>
				</g>
				<polygon style="fill:#1951A6;" points="1609.624,1086.748 1605.593,1101.26 1634.324,1281.271 1619.152,1310.516 
					1592.107,1281.491 1596.578,1101.48 1590.054,1091.879 1597.677,1080.958 				"/>
				<path style="fill:#61B8FF;" d="M1626.838,1034.422c-0.556,21.375-17.246,33.512-29.217,45.692
					c-35.488-9.265-62.401-31.004-70.267-51.142l-16.741,16.619c2.982,25.99,23.805,52.859,55.48,80.263
					c4.828-13.942,12.242-26.766,33.343-38.3l47.483,13.516c2.686-18.467,4.778-35.682-6.014-57.387L1626.838,1034.422z"/>
			</g>
			<path style="fill:#FFFFFF;" d="M1531.419,1446.052c-1.168,12.315-2.433,24.394-3.783,36.195
				c-11.769,103.129-29.732,185.551-40.043,223.086l-115.841,94.491c1.576-36.056,27.46-174.19,43.451-320.063
				c2.133-19.389,4.084-38.917,5.777-58.36c2.54-29.11,4.587-58.049,6.249-86.077c8.414-141.897,7.095-260.738,11.522-263.89
				c24.351-17.32,76.184-30.043,76.184-30.043C1544.57,1175.582,1543.102,1322.634,1531.419,1446.052z"/>
			<path style="fill:#FFFFFF;" d="M1773.819,1718.455l-86.784,11.522c-51.35-128.52-58.542-384.671-49.603-690.34
				c26.324,1.565,58.692,13.58,80.3,26.324c2.594,1.533,5.038,3.076,7.299,4.609c-4.92,52.122-6.956,104.437-6.902,155.498
				c0.011,8.349,0.075,16.656,0.193,24.93c0.976,69.828,5.67,136.838,11.951,197.212
				C1746.649,1605.905,1773.819,1718.455,1773.819,1718.455z"/>
			<path style="fill:#F2FBFF;" d="M1531.419,1446.052c-1.168,12.315-2.433,24.394-3.783,36.195l-37.481,17.663l-74.951-20.15
				c2.133-19.389,4.084-38.917,5.777-58.36c2.54-29.11,4.587-58.049,6.249-86.077L1531.419,1446.052z"/>
		</g>
		<path style="fill:#FFFFFF;" d="M1441.814,1068.438c-23.839,14.783-73.54,175.813-62.643,233.116
			c10.897,57.302,188.473,200.974,188.473,200.974l58.764-47.392L1504.6,1286.432l9.516-93.251
			C1542.283,1090.705,1495.675,1039.668,1441.814,1068.438z"/>
		<path style="fill:#AAE0FF;" d="M1603.18,1423.816c-0.931-1.264-93.057-126.511-99.017-137.141l-0.077-0.138l0.017-0.157
			c2.821-27.646,7.649-56.809,7.698-57.101l0.986,0.164c-0.048,0.291-4.854,29.313-7.674,56.879
			c6.604,11.463,97.945,135.643,98.871,136.901L1603.18,1423.816z"/>
		<g>
			<defs>
				<path id="SVGID_00000047052869309985396770000003317156404344265915_" d="M1626.842,1035.047l9.299,83.357
					c0,0-42.185,79.058-14.374,99.682c27.811,20.624,53.434-1.562,60.934-53.122c7.5-51.56-20.311-146.554-44.998-164.991
					c-24.686-18.436-114.368-16.874-123.118-6.25c-8.749,10.624-96.283,206.428-61.797,246.576
					c34.486,40.148,145.664,3.603,145.664,3.603l-18.015-116.326l-48.898-34.486c0,0-2.873-63.268-2.54-62.267
					s6.816-31.004,6.816-31.004c30.717-8.88,53.966-9.984,84.272,2.255L1626.842,1035.047z"/>
			</defs>
			<clipPath id="SVGID_00000082344960205552078910000008057577416390465163_">
				<use xlink:href="#SVGID_00000047052869309985396770000003317156404344265915_"  style="overflow:visible;"/>
			</clipPath>
			<g style="clip-path:url(#SVGID_00000082344960205552078910000008057577416390465163_);">
				
					<ellipse transform="matrix(0.1815 -0.9834 0.9834 0.1815 175.5821 2596.6428)" style="fill:#1B658F;" cx="1647.663" cy="1192.845" rx="24.672" ry="13.908"/>
				<path style="fill:#2997D6;" d="M1648.247,1192.042c-1.611,8.729,1.072,16.542,5.993,17.45s10.216-5.432,11.827-14.161
					c1.611-8.729-1.072-16.542-5.993-17.45C1655.153,1176.973,1649.858,1183.313,1648.247,1192.042z"/>
				<path style="fill:#0D192B;" d="M1653.488,1174.777c1.144,0,2.086-0.911,2.116-2.061c0.013-0.483,1.199-48.907-5.991-99.605
					c-6.657-46.94-45.749-69.662-79.254-70.911c-32.479-1.219-57.528,16.537-63.801,45.214c-5.646,25.811,1.664,69.842,1.978,71.704
					c0.194,1.153,1.283,1.935,2.441,1.736c1.153-0.194,1.93-1.287,1.736-2.44c-0.076-0.448-7.487-45.088-2.017-70.095
					c5.814-26.576,29.196-43.012,59.505-41.887c31.801,1.185,68.903,22.743,75.219,67.273c7.138,50.334,5.963,98.418,5.95,98.898
					c-0.031,1.169,0.891,2.142,2.061,2.173C1653.45,1174.777,1653.47,1174.777,1653.488,1174.777z"/>
				<path style="fill:#0D192B;" d="M1490.264,1240.339l13.446-1.727c1.16-0.15,1.98-1.21,1.831-2.371
					c-0.15-1.16-1.214-1.98-2.371-1.831l-10.176,1.308c-13.817-35.765-14.609-74.184-1.833-93.892
					c6.3-9.719,15.597-14.904,27.633-15.411c11.288-0.482,21.222,3.252,29.564,11.076c25.396,23.819,29.485,78.757,30.075,90.551
					l-7.702-0.294c-1.142-0.078-2.152,0.866-2.197,2.035s0.866,2.152,2.035,2.197l12.24,0.468l-0.049-2.248
					c-0.061-2.761-1.812-67.942-31.5-95.793c-9.205-8.635-20.19-12.75-32.644-12.223c-13.486,0.568-23.919,6.401-31.009,17.339
					c-7.103,10.957-10.456,26.739-9.698,45.639c0.694,17.287,4.866,36.341,11.748,53.65L1490.264,1240.339z"/>
				<path style="fill:#1B658F;" d="M1527.075,1119.387l-0.119,10.449c0,0-11.857-4.695-23.704,2.974
					c-3.031-4.192-5.167-7.345-5.167-7.345S1507.559,1115.209,1527.075,1119.387z"/>
				<path style="fill:#1B658F;" d="M1518.191,1123.07l-2.28-11.888c-3.312-1.804-10.409,0.111-11.491,2.697l2.628,11.569
					L1518.191,1123.07z"/>
			</g>
		</g>
		<path style="fill:#F2FBFF;" d="M1942.275,1392.915l-1.597,1.651c0,0-168.606-76.849-187.834-99.228
			c-7.428-8.65-20.139-25.112-34.523-44.341c0.976,69.828,5.67,136.838,11.951,197.212c-11.618-33.912-23.612-79.249-26.281-127.127
			c-2.647-47.674-4.834-78.713-6.366-98.038c-1.629-20.493-2.54-27.813-2.54-27.813s9.979,13.719,23.044,30.836
			c19.26,25.262,45.219,57.921,55.691,64.887C1788.728,1300.868,1906.734,1371.629,1942.275,1392.915z"/>
	</g>
</g>
<g id="patient">
	<g>
		<g>
			<path style="fill:#57ACA8;" d="M2417.97,1345.647c0,0-35.525-21.14-61.22-25.038c-25.695-3.898-182.387-0.402-182.387-0.402
				c-42.57,0.792-23.604,64.813,41.47,65.294C2215.833,1385.502,2437.426,1375.697,2417.97,1345.647z"/>
			<path style="fill:#FF9678;" d="M2045.133,1355.379c-12.861-2.036-14.578-12.926,0.822-24.56c0,0,91.822-13.795,128.408-10.611
				c36.587,3.183,21.116,14.959-2.922,25.439C2147.403,1356.127,2045.133,1355.379,2045.133,1355.379z"/>
			<g>
				<g>
					<path style="fill:#FFFFFF;" d="M2705.407,1525.409c-27.342,46.913-124.212,37.031-253.697,43.473
						c0,0-243.461,0.654-291.767-9.046c10.397-39.732,41.415-74.373,83.697-102.754c25.713-17.267,55.627-32.219,87.61-44.555
						c13.055-5.038,26.452-9.646,40.053-13.794c62.84-19.207,183.965-14.662,267.298-8.392c23.933,1.801,44.748,3.741,60.171,5.295
						c17.813,1.79,28.424,3.098,28.424,3.098S2732.738,1478.496,2705.407,1525.409z"/>
					<path style="fill:#F2FAFF;" d="M2705.404,1525.41c-27.336,46.913-124.204,37.034-253.692,43.475
						c0,0-243.468,0.652-291.772-9.052c10.398-39.732,41.416-74.374,83.698-102.747c14.166,29.375,61.907,79.073,221.763,61.274
						c165.619-18.452,217.604-88.3,233.374-122.722c17.805,1.784,28.419,3.09,28.419,3.09S2732.74,1478.497,2705.404,1525.41z"/>
					<path style="fill:#E0F3FF;" d="M2638.601,1390.34c-13.065,17.771-31.919,37.502-51.607,38.349
						c-36.098,1.543-89.292-21.672-110.964-3.097c-21.672,18.574,14.705,102.164,14.705,102.164l-82.819,11.608l-76.666-50.311
						v-76.527c13.055-5.038,26.452-9.646,40.053-13.794C2434.143,1379.525,2555.268,1384.07,2638.601,1390.34z"/>
				</g>
				<path style="fill:#57ACA8;" d="M2451.619,1388.038c0,0-8.553,22.251-24.834,47.449c-14.041,21.736-33.826,45.67-58.821,59.432
					c-41.5,22.84-94.265,33.28-116.462,36.892c-6.677,1.082-10.59,1.554-10.59,1.554l2.937,24.426
					c-10.525,1.276-21.254,2.294-32.143,3.055c-213.89,14.973-203.933-172.646-22.883-225.915c0,0,155.111-11.372,209.624,6.335
					C2425.949,1357.492,2442.305,1373.355,2451.619,1388.038z"/>
				<rect x="2297.142" y="1730.042" style="fill:#FFFFFF;" width="57.992" height="248.986"/>
				<rect x="2297.142" y="1794.726" style="fill:#BFE9FF;" width="57.992" height="45.304"/>
				<path style="fill:#4BA8D6;" d="M967.359,1995.408c-23.006,0.001-45.717-3.976-64.009-15.209
					c-20.194-12.402-32.874-32.356-37.687-59.308c-5.133-28.74,5.229-55.745,14.826-73.339
					c10.356-18.986,21.744-31.049,22.224-31.554l2.898,2.757c-0.456,0.479-45.454,48.557-36.01,101.433
					c4.604,25.779,16.664,44.823,35.843,56.603c42.658,26.197,110.989,11.447,147.925,0.322l1.154,3.83
					C1032.571,1987.555,999.679,1995.406,967.359,1995.408z"/>
				<g>
					<path style="fill:#8CD6FF;" d="M849.342,1802.475v-372.028c0-8.67-7.028-15.698-15.698-15.698
						c-8.67,0-15.698,7.028-15.698,15.698v372.028H849.342z"/>
					<polygon style="fill:#4BA8D6;" points="855.718,1715.592 889.74,1715.592 889.74,1686.213 855.718,1686.213 855.718,1669.81 
						807.621,1669.81 807.621,1730.042 855.718,1730.042 					"/>
				</g>
				<g>
					<path style="fill:#8CD6FF;" d="M2758.722,1794.927h2.607c10.026,0,18.153-8.127,18.153-18.153v-516.817
						c0-10.026-8.127-18.153-18.153-18.153h-2.607c-10.026,0-18.153,8.127-18.153,18.153v516.817
						C2740.569,1786.8,2748.696,1794.927,2758.722,1794.927z"/>
					
						<rect x="2691.066" y="1647.36" transform="matrix(-1 -1.224647e-16 1.224647e-16 -1 5498.5913 3354.9514)" style="fill:#4BA8D6;" width="116.459" height="60.232"/>
				</g>
				<rect x="1403.76" y="1759.964" style="fill:#65BBE6;" width="756.449" height="94.919"/>
				<rect x="875.164" y="1759.964" style="fill:#65BBE6;" width="234.779" height="94.919"/>
				<path style="fill:#8CD6FF;" d="M2721.477,1619.127v171.245H883.426v-171.245c0-38.427,31.018-69.587,69.271-69.587h1699.466
					c24.044,0,45.227,12.273,57.661,30.942C2717.188,1591.536,2721.477,1604.853,2721.477,1619.127z"/>
				<path style="fill:#74BFE8;" d="M2707.984,1580.37c-12-1.915-37.604-5.266-64.55-4.134
					c-37.127,1.524-280.334-8.486-359.483-8.486c-54.456,0-92.534-10.706-112.68-18.322h479.051
					C2674.367,1549.428,2695.551,1561.7,2707.984,1580.37z"/>
				<path style="fill:#8CD6FF;" d="M2316.153,1773.299L994.53,1789.526l-109.431,1.34v-171.243
					c0-38.424,31.018-69.592,69.271-69.592c153.601-12.776,299.023-67.728,416.997-110.139
					c26.935-5.884,86.066,25.938,112.583,19.861c206.269-47.299,399.344-98.296,570.351-119.174
					c8.403-1.029,16.742-1.983,25.027-2.862c54.887-5.798,107.395-8.242,157.223-6.163c45.273,57.974,59.732,169.613,68.724,286.965
					c3.269,42.797,5.82,86.345,8.864,128.338C2314.781,1755.754,2315.457,1764.575,2316.153,1773.299z"/>
				<path style="fill:#73CDFF;" d="M2314.138,1746.858L994.53,1789.526l-109.431,1.34v-160.149
					c21.704,6.838,68.424,14.662,168.842,15.777c183.054,2.026,1072.996-36.516,1072.996-36.516s127.652,15.616,178.338,8.542
					C2308.544,1661.317,2311.094,1704.865,2314.138,1746.858z"/>
				<path style="fill:#78CFFF;" d="M1427.398,1470.577c0,0-25.901,20.73-57.992,27.354c-32.091,6.624,80.675,48.262,80.675,48.262
					l-206.451-5.678c0,0,112.644-8.517,96.54-24.604c-16.104-16.087-12.285-38.799,0-38.799
					C1352.456,1477.112,1385.944,1493.377,1427.398,1470.577z"/>
				<path style="fill:#78CFFF;" d="M2245.838,1549.535c0.696,6.388-686.321,2.229-713.566-0.107
					c-27.245-2.337,562.259-36.388,574.971-93.976c11.072-50.15-34.63-97.449-52.947-114.876c8.403-1.029,16.741-1.983,25.026-2.862
					l20.579,1.886C2099.9,1339.6,2245.13,1543.158,2245.838,1549.535z"/>
				<path style="fill:#BFE9FF;" d="M2063.4,1339.181c0,0,37.585,42.548,43.839,85.145c27.813,148.757,23.278,257.227,23.278,257.227
					s169.341,7.816,172.924,4.04c3.583-3.776,0-189.409-26.423-269.122c-20.804-62.762-36.107-85.237-36.107-85.237
					C2194.663,1323.535,2129.911,1327.249,2063.4,1339.181z"/>
				<rect x="1018.001" y="1943.285" style="fill:#FFFFFF;" width="1575.491" height="71.478"/>
				<rect x="1018.001" y="1979.024" style="fill:#BFE9FF;" width="1575.491" height="35.739"/>
				<g>
					<g>
						<g>
							<ellipse style="fill:#2D4254;" cx="1105.736" cy="2118.679" rx="54.679" ry="54.928"/>
							<ellipse style="fill:#FFFFFF;" cx="1105.736" cy="2118.679" rx="36.453" ry="36.619"/>
						</g>
						<rect x="1069.442" y="1997.238" style="fill:#FFFFFF;" width="40.501" height="121.441"/>
						<rect x="1069.442" y="1997.238" style="fill:#BFE9FF;" width="40.501" height="60.721"/>
					</g>
					<rect x="1051.057" y="1997.238" style="fill:#FFFFFF;" width="80.762" height="26.538"/>
				</g>
				<g>
					<g>
						<g>
							<ellipse style="fill:#2D4254;" cx="2506.685" cy="2118.679" rx="54.679" ry="54.928"/>
							<ellipse style="fill:#FFFFFF;" cx="2506.685" cy="2118.679" rx="36.453" ry="36.619"/>
						</g>
						<rect x="2502.479" y="1997.238" style="fill:#FFFFFF;" width="40.501" height="121.441"/>
						<rect x="2502.481" y="1997.24" style="fill:#BFE9FF;" width="40.501" height="54.732"/>
					</g>
					
						<rect x="2480.603" y="1997.238" transform="matrix(-1 -1.224647e-16 1.224647e-16 -1 5041.9673 4021.0132)" style="fill:#FFFFFF;" width="80.762" height="26.538"/>
				</g>
				<rect x="866.285" y="1713.79" style="fill:#FFFFFF;" width="1883.01" height="81.137"/>
				<path style="fill:#FFFFFF;" d="M2648.571,1982.564H964.489c-1.945,0-3.521-1.583-3.521-3.537v-224.669h7.042v221.132H2645.05
					v-221.132h7.042v224.669C2652.092,1980.981,2650.516,1982.564,2648.571,1982.564z"/>
				<path style="fill:#499CC7;" d="M1009.354,1783.324v77.984c0,10.035,8.098,18.17,18.088,18.17h294.641
					c9.99,0,18.088-8.135,18.088-18.17v-77.984c0-8.155-6.581-14.765-14.699-14.765h-301.42
					C1015.935,1768.559,1009.354,1775.17,1009.354,1783.324z M1143.78,1852.005h-92.595c-5.964,0-10.798-4.856-10.798-10.847
					v-32.534c0-5.991,4.835-10.847,10.798-10.847h92.595c5.964,0,10.798,4.856,10.798,10.847v32.534
					C1154.578,1847.149,1149.744,1852.005,1143.78,1852.005z M1299.705,1852.005h-92.634c-5.964,0-10.798-4.856-10.798-10.847
					v-32.534c0-5.991,4.835-10.847,10.798-10.847h92.634c5.964,0,10.798,4.856,10.798,10.847v32.534
					C1310.503,1847.149,1305.669,1852.005,1299.705,1852.005z"/>
				<path style="fill:#BFE9FF;" d="M1152.765,2028.717H966.581c-1.155,0-2.092-0.937-2.092-2.092v-14.026
					c0-1.155,0.937-2.092,2.092-2.092h186.184c1.155,0,2.092,0.937,2.092,2.092v14.026
					C1154.858,2027.78,1153.921,2028.717,1152.765,2028.717z"/>
				<path style="fill:#BFE9FF;" d="M2636.072,2028.717h-186.184c-1.156,0-2.092-0.937-2.092-2.092v-14.026
					c0-1.155,0.937-2.092,2.092-2.092h186.184c1.156,0,2.092,0.937,2.092,2.092v14.026
					C2638.164,2027.78,2637.227,2028.717,2636.072,2028.717z"/>
				<g>
					<path style="fill:#499CC7;" d="M2460.331,1712.955c-8.956-14.597-24.495-23.305-41.58-23.305h-488.705
						c-18.596,0-35.321,10.369-43.666,27.063l-78.663,157.247c-7.697,15.356-6.906,33.205,2.05,47.839
						c8.957,14.597,24.53,23.305,41.615,23.305h488.67c18.595,0,35.322-10.37,43.666-27.027l78.7-157.283
						C2470.079,1745.438,2469.287,1727.589,2460.331,1712.955z M1972.992,1906.19c0,9.539-7.661,17.235-17.157,17.235h-103.59
						c-8.74,0-17.265-3.722-22.552-10.731c-6.438-8.528-7.409-19.584-2.698-28.978l78.663-157.284
						c4.64-9.25,14.063-15.103,24.387-15.103h25.789c9.496,0,17.157,7.696,17.157,17.234V1906.19z M2100.789,1854.883
						c0,10.983-8.884,19.909-19.819,19.909h-26.976c-10.971,0-19.819-8.925-19.819-19.909v-75.01
						c0-10.984,8.848-19.909,19.819-19.909h26.976c10.935,0,19.819,8.925,19.819,19.909V1854.883z M2226.859,1854.883
						c0,10.983-8.884,19.909-19.819,19.909h-27.012c-10.935,0-19.819-8.925-19.819-19.909v-75.01
						c0-10.984,8.884-19.909,19.819-19.909h27.012c10.935,0,19.819,8.925,19.819,19.909V1854.883z M2443.138,1751.039
						l-78.699,157.283c-4.64,9.322-13.992,15.104-24.387,15.104h-25.753c-9.46,0-17.157-7.696-17.157-17.235v-177.626
						c0-9.538,7.697-17.234,17.157-17.234h103.589c8.705,0,17.229,3.757,22.516,10.731
						C2446.843,1730.588,2447.814,1741.68,2443.138,1751.039z"/>
					<path style="fill:#FFFFFF;" d="M2260.017,1737.198h-258.999c-1.913,0-3.464-1.551-3.464-3.464v-23.219
						c0-1.913,1.551-3.464,3.464-3.464h258.999c1.913,0,3.463,1.551,3.463,3.464v23.219
						C2263.48,1735.648,2261.929,1737.198,2260.017,1737.198z"/>
					<rect x="2032.018" y="1714.209" style="fill:#4794BF;" width="32.397" height="15.833"/>
					<rect x="2083.707" y="1714.209" style="fill:#4794BF;" width="32.397" height="15.833"/>
					<rect x="2135.396" y="1714.209" style="fill:#4794BF;" width="32.397" height="15.833"/>
					<rect x="2187.085" y="1714.209" style="fill:#4794BF;" width="32.397" height="15.833"/>
				</g>
				<rect x="1369.406" y="1730.042" style="fill:#FFFFFF;" width="57.992" height="248.986"/>
				<rect x="1369.406" y="1794.927" style="fill:#BFE9FF;" width="57.992" height="45.304"/>
			</g>
			
				<rect x="2268.527" y="1305.965" transform="matrix(0.1063 -0.9943 0.9943 0.1063 701.132 3448.5686)" style="fill:#326361;" width="1" height="56.551"/>
		</g>
		<g>
			<path style="fill:#FF9678;" d="M2268.809,1451.479l-125.057,4.553c-23.346-33.436-64.002-46.324-116.823-79.851l-22.19,12.08
				c0,0,56.438,85.416,133.326,129.434c61.504,28.635,146.25,28.635,146.25,28.635L2268.809,1451.479z"/>
			<path style="fill:#57ACA8;" d="M2425.722,1435.487c-14.04,21.736-33.826,45.67-58.821,59.432
				c-41.5,22.84-94.265,33.28-116.462,36.892c-24.201-57.749-8.875-82.551-8.875-82.551l95.316-23.237
				C2336.88,1426.023,2399.924,1412.84,2425.722,1435.487z"/>
			<path style="fill:#FF9678;" d="M2030.33,1370.689c0,0-1.492-28.205-10.837-29.598c-5.12,1.394,1.547,10.802-4.587,12.385
				s-2.303-21.877-13.196-20.73c-10.893,1.147-36.95,21.769,3.603,56.796C2033.254,1401.376,2030.33,1370.689,2030.33,1370.689z"/>
			<path style="fill:#326361;" d="M2242.699,1449.757l-0.139-0.99c0.498-0.07,50.107-7.147,71.504-17.427l0.434,0.902
				C2292.961,1442.587,2243.2,1449.687,2242.699,1449.757z"/>
			<path style="fill:#4B9490;" d="M2455.049,1458.167c-16.023,47.899-85.315,78.399-193.556,91.39c0,0-7.719-10.193-9.99-17.746
				c22.197-3.612,74.962-14.051,116.462-36.892c24.994-13.762,44.78-37.695,58.821-59.432
				c16.281-25.198,24.834-47.449,24.834-47.449C2471.619,1419.539,2459.24,1445.605,2455.049,1458.167z"/>
			<g>
				<g>
					<path style="fill:#FF9678;" d="M2398.079,1342.258l10.163-3.095l36.426-11.04l52.346-9.265l25.397,64.33l-73.829,25.058
						c-19.052,6.645-58.12-16.996-80.62-37.826C2371.307,1357.532,2384.053,1347.269,2398.079,1342.258z"/>
					<path style="opacity:0.5;fill:#0D0D0D;" d="M2466.7,1382.297c0,0-33.436-11.552-58.458-43.134l36.426-11.04L2466.7,1382.297z"
						/>
				</g>
				<g>
					<g>
						<path style="fill:#FF9678;" d="M2480.465,1257.954c-32.968,11.729-66.022,46.323-52.509,85.048
							c13.513,38.725,63.95,54.8,109.106,39.043c45.156-15.757,70.808-59.924,57.295-98.649
							C2580.844,1244.67,2525.276,1227.966,2480.465,1257.954z"/>
					</g>
					<path style="fill:#363636;" d="M2488.736,1253.005c0,0,24.569-20.422,55.022,7.009c-10.052,3.826-24.607,0.469-39.76-3.841
						c0,0,22.318,29.22,51.171,34.438c-9.173,6.363-25.556,3.731-25.556,3.731s5.854,22.971,31.819,33.094
						c-19.783,36.999-24.369,54.609-53.061,60.402c48.783,5.484,67.886,9.203,93.394-9.678
						c36.576-27.075,27.728-88.791,1.974-123.818C2558.903,1188.85,2505.492,1204.704,2488.736,1253.005z"/>
					<path style="fill:#FF9678;" d="M2528.193,1356.631c-6.436,4.429-8.063,13.237-3.634,19.672
						c4.429,6.436,13.237,8.063,19.672,3.634c6.436-4.429,8.063-13.237,3.634-19.672S2534.629,1352.202,2528.193,1356.631z"/>
					<path style="fill:#73382A;" d="M2467.42,1302.927c-0.039-0.036-0.074-0.076-0.105-0.121c-0.208-0.292-5.078-7.217-3.988-12.217
						c1.081-4.95,25.472-5.726,32.921-5.846c0.447-0.007,0.814,0.349,0.822,0.796c0.007,0.447-0.349,0.815-0.796,0.822
						c-14.657,0.236-30.816,2.053-31.366,4.573c-0.938,4.302,3.679,10.87,3.726,10.935c0.259,0.365,0.173,0.87-0.191,1.128
						C2468.122,1303.223,2467.695,1303.185,2467.42,1302.927z"/>
					<path style="fill:#73382A;" d="M2464.215,1326c-10.04-9.451-15.244-20.84-15.326-21.025c-0.183-0.408,0-0.887,0.408-1.069
						c0.407-0.182,0.885-0.002,1.069,0.408c0.129,0.29,13.284,29.045,38.063,32.267c0.443,0.056,0.757,0.464,0.698,0.907
						c-0.058,0.443-0.464,0.756-0.907,0.698C2478.428,1336.913,2470.402,1331.825,2464.215,1326z"/>
					<path style="fill:#5C2D22;" d="M2489.436,1269.377c-2.733,1.826-5.781,2.06-6.808,0.522c-1.027-1.537,0.356-4.263,3.089-6.089
						s5.781-2.06,6.808-0.523C2493.551,1264.825,2492.168,1267.551,2489.436,1269.377z"/>
					<path style="fill:#5C2D22;" d="M2517.604,1315.439c-3.162,1.725-6.512,1.681-7.482-0.097c-0.97-1.779,0.807-4.619,3.969-6.344
						c3.162-1.725,6.512-1.681,7.482,0.098C2522.542,1310.874,2520.766,1313.714,2517.604,1315.439z"/>
				</g>
			</g>
		</g>
	</g>
	<path style="fill:#FF9678;" d="M2041.672,1321.21c0,0-34.263,4.216-34.77,26.966c-0.507,22.75,31.611-8.029,31.611-8.029
		s3.5,11.398,7.549,5.922c4.049-5.476,15.07-22.169,7.618-23.841C2046.228,1320.557,2041.672,1321.21,2041.672,1321.21z"/>
</g>
</svg>
